<?xml version="1.0" encoding="UTF-8" standalone="no"?>
<!DOCTYPE svg PUBLIC "-//W3C//DTD SVG 1.1//EN" "http://www.w3.org/Graphics/SVG/1.1/DTD/svg11.dtd">
<svg width="100%" height="100%" viewBox="0 0 16 16" version="1.1" xmlns="http://www.w3.org/2000/svg" xmlns:xlink="http://www.w3.org/1999/xlink" xml:space="preserve" style="fill-rule:evenodd;clip-rule:evenodd;stroke-linejoin:round;stroke-miterlimit:1.41421;">
    <g id="Artboard-1-Copy-2" transform="matrix(1.01923,0,0,1.01923,0,0)">
        <path id="Shape" d="M6,10C8.209,10 10,8.209 10,6C10,3.791 8.209,2 6,2C3.791,2 2,3.791 2,6C2,8.209 3.791,10 6,10ZM6,12C2.686,12 0,9.314 0,6C0,2.686 2.686,0 6,0C9.314,0 12,2.686 12,6C12,9.314 9.314,12 6,12Z" style="fill:white;"/>
        <path id="Shape1" d="M9.293,10.707L14.243,15.657L15.657,14.243L10.707,9.293L9.293,10.707Z" style="fill:white;"/>
    </g>
</svg>
